<svg width="14" height="13" viewBox="0 0 14 13" fill="none" xmlns="http://www.w3.org/2000/svg">
<path d="M13.9732 2.41669L9.06267 7.23855C8.51513 7.77484 7.77335 8.07601 7 8.07601C6.22665 8.07601 5.48487 7.77484 4.93733 7.23855L0.0268333 2.41669C0.0186667 2.50719 0 2.5891 0 2.67903V9.55267C0.00092625 10.312 0.308514 11.0399 0.855295 11.5768C1.40208 12.1137 2.1434 12.4158 2.91667 12.4167H11.0833C11.8566 12.4158 12.5979 12.1137 13.1447 11.5768C13.6915 11.0399 13.9991 10.312 14 9.55267V2.67903C14 2.5891 13.9813 2.50719 13.9732 2.41669Z" fill="white"/>
<path d="M8.31965 6.73517L14 1.40642C13.7248 0.978436 13.3367 0.624188 12.8731 0.377843C12.4095 0.131497 11.8861 0.00136539 11.3532 0H2.64677C2.11394 0.00136539 1.59049 0.131497 1.12688 0.377843C0.663279 0.624188 0.275173 0.978436 0 1.40642L5.68035 6.73517C6.03083 7.0626 6.50534 7.24644 7 7.24644C7.49466 7.24644 7.96917 7.0626 8.31965 6.73517Z" fill="white"/>
</svg>
